HIERARCHY
ROOT Hips
{
  OFFSET -33.9132 29.2015 117.021
  CHANNELS 6 Xposition Yposition Zposition Zrotation Xrotation Yrotation
  JOINT LeftUpLeg
  {
    OFFSET 8.64259 1.95398 -2.38835
    CHANNELS 3 Zrotation Xrotation Yrotation
    JOINT LeftLeg
    {
      OFFSET 43.7702 0 0
      CHANNELS 3 Zrotation Xrotation Yrotation
      JOINT LeftFoot
      {
        OFFSET 40.6238 0 0
        CHANNELS 3 Zrotation Xrotation Yrotation
        JOINT LeftToeBase
        {
          OFFSET 12.7242 0 0
          CHANNELS 3 Zrotation Xrotation Yrotation
          End Site
          {
            OFFSET 0 0 0
          }
        }
      }
    }
  }
  JOINT RightUpLeg
  {
    OFFSET -8.2249 1.95398 -2.59336
    CHANNELS 3 Zrotation Xrotation Yrotation
    JOINT RightLeg
    {
      OFFSET 43.5653 0 0
      CHANNELS 3 Zrotation Xrotation Yrotation
      JOINT RightFoot
      {
        OFFSET 40.6238 0 0
        CHANNELS 3 Zrotation Xrotation Yrotation
        JOINT RightToeBase
        {
          OFFSET 12.7242 0 0
          CHANNELS 3 Zrotation Xrotation Yrotation
          End Site
          {
            OFFSET 0 0 0
          }
        }
      }
    }
  }
  JOINT Spine
  {
    OFFSET 0.165834 0.87714 6.61349
    CHANNELS 3 Zrotation Xrotation Yrotation
    JOINT Spine1
    {
      OFFSET 7.38963 1.71661e-005 0
      CHANNELS 3 Zrotation Xrotation Yrotation
      JOINT Spine2
      {
        OFFSET 11.9445 1.14441e-005 0
        CHANNELS 3 Zrotation Xrotation Yrotation
        JOINT Spine3
        {
          OFFSET 14.7254 4.19617e-005 0
          CHANNELS 3 Zrotation Xrotation Yrotation
          JOINT Spine4
          {
            OFFSET 10.9679 0 0
            CHANNELS 3 Zrotation Xrotation Yrotation
            JOINT RightShoulder
            {
              OFFSET 2.46616 -1.6653 3.69651
              CHANNELS 3 Zrotation Xrotation Yrotation
              JOINT RightArm
              {
                OFFSET 13.0012 0 0
                CHANNELS 3 Zrotation Xrotation Yrotation
                JOINT RightForeArm
                {
                  OFFSET 28.7848 1.62311e-005 0
                  CHANNELS 3 Zrotation Xrotation Yrotation
                  JOINT RightHand
                  {
                    OFFSET 26.5688 1.62095e-005 0
                    CHANNELS 3 Zrotation Xrotation Yrotation
                    End Site
                    {
                      OFFSET 0 0 0
                    }
                  }
                }
              }
            }
            JOINT LeftShoulder
            {
              OFFSET 2.38034 -1.29275 -3.7523
              CHANNELS 3 Zrotation Xrotation Yrotation
              JOINT LeftArm
              {
                OFFSET 16.3182 6.07031e-005 0
                CHANNELS 3 Zrotation Xrotation Yrotation
                JOINT LeftForeArm
                {
                  OFFSET 27.0901 0 0
                  CHANNELS 3 Zrotation Xrotation Yrotation
                  JOINT LeftHand
                  {
                    OFFSET 24.5451 1.51738e-005 0
                    CHANNELS 3 Zrotation Xrotation Yrotation
                    End Site
                    {
                      OFFSET 0 0 0
                    }
                  }
                }
              }
            }
            JOINT Neck
            {
              OFFSET 5.0226 -0.0266342 0
              CHANNELS 3 Zrotation Xrotation Yrotation
              JOINT Head
              {
                OFFSET 6.69364 2.86102e-005 0
                CHANNELS 3 Zrotation Xrotation Yrotation
                End Site
                {
                  OFFSET 0 0 0
                }
              }
            }
          }
        }
      }
    }
  }
}
MOTION
Frames:	9
Frame Time:	0.0416667
35.2425 101.846 -332.547 151.019 -67.6679 145.463 -165.912 -21.3122 97.8355 -5.3964 28.8457 -4.55395 70.7701 7.78924 0.754886 17.3346 -10.5606 8.82597 170.126 -27.7282 87.0747 -2.87774 2.25359 -1.0247 70.0998 -4.5471 0.483255 24.1637 0.814983 4.50976 -2.44025 7.36387 -87.1469 12.2096 -3.50001 6.0839 0.528423 -3.2294 6.23137 -21.968 -5.16476 4.75442 -1.95536 -5.16476 4.75442 67.7882 -43.2101 -137.405 51.7562 8.3159 8.243 -5.33843 -42.5676 -5.47285 -19.6304 2.30948 -18.9803 -80.2365 -8.36611 89.7669 -48.8872 -15.6314 19.972 -5.62676 46.1625 -3.78688 10.8918 -1.92681 -20.4618 -15.1556 7.00308 -30.0438 -4.95636 6.9905 15.9235 
34.5173 101.897 -332.706 152.274 -69.8038 146.373 -167.758 -20.6763 95.7452 -4.66696 25.3811 -3.36642 70.248 7.44894 0.243229 18.8059 -9.82437 9.10857 169.756 -25.1092 86.4779 -4.25939 0.0777885 -0.7102 70.3124 -4.77769 0.079726 24.2427 0.854476 4.25871 -2.35407 7.30581 -87.369 12.3228 -3.43047 5.64008 0.643516 -3.17933 5.78504 -21.8636 -4.96545 4.35114 -1.85097 -4.96545 4.35114 70.2761 -41.6503 -134.696 52.1372 7.92821 7.35248 -5.21411 -40.7275 -5.39966 -19.4903 2.25528 -18.7603 -79.8936 -10.7831 91.0832 -48.5239 -14.5542 18.1429 -5.62522 45.3512 -4.19745 8.42404 -1.4352 -20.3523 -13.8807 6.79339 -27.3386 -4.48065 7.13752 14.5093 
33.5775 101.924 -333.143 154.534 -73.2426 148.479 -169.85 -17.8688 93.4561 -5.7975 21.1715 -2.27173 70.2805 7.56904 0.175235 20.7102 -9.10566 9.90201 169.789 -20.602 86.2548 -6.85874 -3.08066 -0.398024 70.7954 -5.20073 -0.930969 24.1933 0.833489 4.40266 -2.27452 7.20077 -87.7296 12.5296 -3.43787 4.93364 0.85327 -3.2177 5.07978 -21.6719 -4.76072 3.67386 -1.65923 -4.76072 3.67386 73.2203 -38.5319 -132.084 52.2155 7.37994 5.69535 -5.41608 -43.6669 -5.52023 -19.3443 2.34932 -19.4327 -79.0859 -15.1812 93.6765 -46.7722 -13.3692 15.8585 -5.89503 43.4275 -4.3599 9.00264 -1.63186 -20.9493 -11.6041 6.9218 -21.8498 -4.59214 7.62887 11.5978 
32.5304 101.885 -333.73 162.291 -76.1485 156.157 -171.805 -15.8182 91.4811 -6.96139 15.9686 -0.877719 70.3011 7.67974 -0.432707 21.7999 -9.97686 12.6673 169.435 -16.23 85.7892 -10.5834 -6.78372 0.16975 72.1236 -6.0877 -1.40986 23.5238 0.99307 4.81668 -2.02605 7.25334 -88.1764 12.4129 -3.15932 4.00313 0.739169 -2.98022 4.13809 -21.798 -4.21583 2.8691 -1.78537 -4.21584 2.86909 76.8469 -34.354 -128.725 53.1908 6.35496 3.52969 -5.42825 -43.8361 -5.52749 -19.2709 2.27123 -19.0206 -78.1173 -20.8834 96.2541 -44.1158 -12.3914 12.9987 -6.12534 40.8393 -4.55886 7.31765 -1.47788 -22.6392 -7.76462 6.15493 -16.4221 -6.67658 7.00302 10.3182 
31.3643 101.446 -334.495 170.118 -77.1554 164.096 -173.455 -14.464 90.2948 -8.61705 11.3194 0.704846 70.4441 9.44601 -0.791171 24.2541 -9.46879 14.669 168.779 -12.7383 85.3483 -15.4612 -9.41929 1.15975 74.5139 -7.39618 -1.10976 23.0255 0.797385 6.161 -1.84832 7.5547 -88.6544 11.8004 -3.0434 3.00545 0.129262 -2.90824 3.13641 -22.4207 -3.80571 1.95159 -2.40804 -3.80571 1.95158 80.318 -29.8193 -125.416 54.3703 4.87145 0.438672 -5.34633 -42.6808 -5.47756 -19.9162 2.18023 -18.0225 -76.8746 -27.5265 98.9143 -40.6523 -11.3647 9.85256 -5.91167 39.61 -5.19539 7.01537 -1.55711 -23.9927 -3.91909 6.17466 -9.57699 -6.72811 6.89902 7.67833 
30.4316 100.953 -335.569 171.622 -77.4503 167.039 -175.745 -5.30992 90.7624 -24.0667 4.68548 2.3756 73.0677 10.0449 -5.23991 23.8951 -9.3448 13.927 168.798 -10.768 86.6106 -18.0628 -9.39453 2.47855 75.8472 -8.05954 -0.344618 22.1985 0.686259 7.61154 -1.6534 7.92512 -89.363 11.0441 -2.99599 1.55606 -0.624511 -2.92461 1.68647 -23.1857 -3.325 0.582907 -3.17304 -3.325 0.5829 83.9619 -24.1387 -121.944 55.0707 3.45825 -2.70213 -5.38771 -43.2687 -5.50257 -18.3173 2.2485 -19.6259 -75.9732 -36.08 100.381 -35.6106 -10.3381 7.09307 -5.67888 35.8176 -6.62441 9.45655 -2.11369 -23.8838 -0.341087 6.18106 -1.42768 -7.44659 6.15386 4.4463 
29.8393 101.72 -336.187 174.061 -78.2344 169.168 -179.495 5.55979 87.7863 -39.0126 -9.62377 5.50296 74.6065 1.94864 -29.6861 12.5107 -16.9371 13.7332 169.095 -11.6345 86.9922 -13.9246 -8.45497 2.26478 73.6241 -7.76153 0.824259 23.0758 -0.149595 9.28502 -1.29107 8.18973 -89.8339 10.5012 -2.49532 0.553129 -1.1675 -2.46856 0.662483 -23.7219 -2.54613 -0.222886 -3.70923 -2.54613 -0.22289 86.4583 -19.4913 -119.651 55.4586 2.29842 -5.35599 -5.17877 -40.1851 -5.37967 -17.2009 2.06102 -19.3218 -75.6214 -43.6655 100.671 -31.8273 -9.53846 4.5734 -6.14635 32.7989 -6.98613 10.0866 -2.12413 -22.6786 1.22423 5.90986 4.60689 -7.63252 5.09823 1.57054 
29.5414 101.421 -336.34 -171.661 -79.463 -177.916 -178.44 10.3928 84.5776 -35.2367 -2.76338 2.01309 71.5529 4.18541 -16.478 18.4836 -11.9816 12.2629 169.464 -7.3659 85.8352 -19.3619 -11.4571 1.19736 75.0718 -8.24918 0.13598 23.4338 0.289062 7.33437 -0.730521 8.341 -90.1871 10.1912 -1.54097 -0.240875 -1.47882 -1.55007 -0.172802 -24.0203 -1.39732 -0.692943 -4.00765 -1.39732 -0.692945 88.9132 -13.377 -118.117 57.4131 0.359299 -7.91805 -4.97489 -36.905 -5.27079 -17.5572 1.89879 -17.9984 -75.7883 -51.4801 100.145 -27.6198 -9.42256 3.64861 -6.95291 30.5206 -6.51239 9.8394 -2.11324 -22.9535 1.75731 5.79391 12.4141 -7.21346 3.89065 -2.35941 
29.3451 100.959 -335.186 -164.417 -79.695 -171.125 -178.225 11.9026 81.598 -22.7852 7.12812 -0.523665 66.6699 5.85378 -0.72519 19.4629 -9.09161 8.53472 169.796 -6.61809 85.7107 -21.4704 -11.5046 0.594989 76.8222 -8.99559 0.285346 24.6217 -0.943948 10.125 0.156915 8.47025 -90.5007 9.93268 0.0853648 -1.00058 -1.73865 0.04125 -1.00337 -24.2711 0.382114 -0.928674 -4.25842 0.382128 -0.928678 92.6411 -10.2144 -110.248 59.9229 -1.88213 -10.1777 -4.98925 -37.1441 -5.27822 -18.6645 2.13221 -18.6294 -81.856 -58.8846 91.6098 -20.4516 -7.70206 3.19614 -9.34415 28.5388 -4.30409 7.32689 -1.43046 -20.9599 0.923441 3.05799 17.2053 -6.30776 0.63773 -5.23063 
